<svg width="366" height="422" viewBox="0 0 366 422" fill="none" xmlns="http://www.w3.org/2000/svg">
<path fill-rule="evenodd" clip-rule="evenodd" d="M0 134V268H67.667C104.883 268 135.146 267.818 134.917 267.594C134.688 267.371 131.071 265.418 126.879 263.253C92.578 245.534 72.918 207.305 70.327 153.286L69.689 139.971L66.373 137.922C61.186 134.716 55.269 127.33 52.935 121.147C51.251 116.687 50.896 113.993 51.246 108.327C53.288 75.301 96.423 66.064 112.562 95.196C115.236 100.023 115.5 101.354 115.495 110C115.491 118.345 115.167 120.113 112.835 124.54C109.961 129.993 103.185 136.818 97.965 139.518L94.702 141.206L95.338 153.353C96.548 176.447 100.28 192.743 107.967 208.5C113.927 220.715 120.342 228.826 129.53 235.763C142.386 245.472 156.424 249.383 178 249.269C193.76 249.186 203.253 247.149 214.707 241.392C240.488 228.434 255.765 197.156 257.633 153.5L258.189 140.5L254.203 138.719C248.432 136.142 241.695 128.464 239.048 121.449C234.567 109.575 238.007 94.744 247.16 86.475C257.558 77.081 271.395 74.966 283.494 80.923C295.986 87.072 302.557 98.252 301.762 112C301.111 123.239 296.434 131.318 286.902 137.668L283.305 140.064L282.698 153.782C281.653 177.419 276.652 200.319 268.916 216.889C252.387 252.292 224.127 271.542 184.25 274.558L175 275.258V311.171C175 339.984 175.312 348.608 176.58 354.792C181.068 376.682 194.149 396.276 212.337 408.348C242.894 428.63 283.943 425.273 310.066 400.355L315.761 394.923L322.158 395.945C329.608 397.136 337.709 396.107 344.481 393.112C350.822 390.307 359.461 381.792 362.743 375.112C365.221 370.068 365.5 368.438 365.5 359C365.5 349.403 365.256 348.037 362.666 343.117C358.719 335.621 352.096 328.882 345.281 325.429C339.929 322.717 338.684 322.5 328.5 322.504C318.442 322.507 317.054 322.742 312.287 325.252C302.214 330.555 295.657 338.437 292.588 348.932C290.388 356.455 290.64 363.293 293.419 371.448C294.72 375.269 295.586 378.869 295.343 379.448C294.685 381.016 286.686 387.124 281.261 390.201C271.308 395.848 254.815 397.666 242.542 394.469C222.682 389.296 205.867 371.28 201.504 350.5C200.465 345.549 200.03 336.878 200.017 320.88L200 298.26L206.25 297.055C224.816 293.474 245.151 283.848 260.603 271.325L264.706 268H308.853H353V134V0H305.687H258.374L255.843 2.75C254.45 4.262 236.046 28.173 214.944 55.883L176.577 106.267L174.384 103.383C173.178 101.798 167.31 94.124 161.345 86.331C155.38 78.539 138.125 55.928 123 36.085L95.5 0.00700378L47.75 0.0039978L0 0V134Z" fill="white"/>
</svg>
